<mxfile host="app.diagrams.net" modified="2024-04-24T06:41:22.582Z" agent="Mozilla/5.0 (Windows NT 10.0; Win64; x64) AppleWebKit/537.36 (KHTML, like Gecko) Chrome/124.0.0.0 Safari/537.36" etag="84cfu32u5yG8huVMT2G2" version="24.2.8" type="device">
  <diagram id="C5RBs43oDa-KdzZeNtuy" name="Page-1">
    <mxGraphModel dx="880" dy="468" grid="1" gridSize="10" guides="1" tooltips="1" connect="1" arrows="1" fold="1" page="1" pageScale="1" pageWidth="827" pageHeight="1169" math="0" shadow="0">
      <root>
        <mxCell id="WIyWlLk6GJQsqaUBKTNV-0" />
        <mxCell id="WIyWlLk6GJQsqaUBKTNV-1" parent="WIyWlLk6GJQsqaUBKTNV-0" />
        <mxCell id="WIyWlLk6GJQsqaUBKTNV-2" value="" style="rounded=0;html=1;jettySize=auto;orthogonalLoop=1;fontSize=11;endArrow=block;endFill=0;endSize=8;strokeWidth=1;shadow=0;labelBackgroundColor=none;edgeStyle=orthogonalEdgeStyle;" parent="WIyWlLk6GJQsqaUBKTNV-1" edge="1">
          <mxGeometry relative="1" as="geometry">
            <mxPoint x="220" y="120" as="sourcePoint" />
            <mxPoint x="220" y="170" as="targetPoint" />
          </mxGeometry>
        </mxCell>
        <mxCell id="WIyWlLk6GJQsqaUBKTNV-4" value="" style="rounded=0;html=1;jettySize=auto;orthogonalLoop=1;fontSize=11;endArrow=block;endFill=0;endSize=8;strokeWidth=1;shadow=0;labelBackgroundColor=none;edgeStyle=orthogonalEdgeStyle;exitX=0.5;exitY=1;exitDx=0;exitDy=0;" parent="WIyWlLk6GJQsqaUBKTNV-1" source="T2A3G6Zsd0FEZtPso_88-1" edge="1">
          <mxGeometry y="20" relative="1" as="geometry">
            <mxPoint as="offset" />
            <mxPoint x="220" y="250" as="sourcePoint" />
            <mxPoint x="220" y="290" as="targetPoint" />
          </mxGeometry>
        </mxCell>
        <mxCell id="WIyWlLk6GJQsqaUBKTNV-8" value="" style="rounded=0;html=1;jettySize=auto;orthogonalLoop=1;fontSize=11;endArrow=block;endFill=0;endSize=8;strokeWidth=1;shadow=0;labelBackgroundColor=none;edgeStyle=orthogonalEdgeStyle;exitX=0.5;exitY=1;exitDx=0;exitDy=0;" parent="WIyWlLk6GJQsqaUBKTNV-1" source="T2A3G6Zsd0FEZtPso_88-2" edge="1">
          <mxGeometry x="0.3333" y="20" relative="1" as="geometry">
            <mxPoint as="offset" />
            <mxPoint x="220" y="370" as="sourcePoint" />
            <mxPoint x="220" y="400" as="targetPoint" />
          </mxGeometry>
        </mxCell>
        <mxCell id="T2A3G6Zsd0FEZtPso_88-0" value="&lt;b&gt;Flowchart&amp;nbsp;&amp;nbsp;&lt;/b&gt;&lt;div&gt;&lt;b&gt;Tambah Foto &amp;amp;&lt;/b&gt;&lt;/div&gt;&lt;div&gt;&lt;b&gt;Caption&lt;/b&gt;&lt;/div&gt;" style="text;html=1;align=center;verticalAlign=middle;resizable=0;points=[];autosize=1;strokeColor=none;fillColor=none;" parent="WIyWlLk6GJQsqaUBKTNV-1" vertex="1">
          <mxGeometry x="105" y="3" width="110" height="60" as="geometry" />
        </mxCell>
        <mxCell id="T2A3G6Zsd0FEZtPso_88-1" value="Tambah Foto/&lt;div&gt;caption&lt;/div&gt;" style="shape=parallelogram;perimeter=parallelogramPerimeter;whiteSpace=wrap;html=1;fixedSize=1;" parent="WIyWlLk6GJQsqaUBKTNV-1" vertex="1">
          <mxGeometry x="155" y="170" width="130" height="60" as="geometry" />
        </mxCell>
        <mxCell id="T2A3G6Zsd0FEZtPso_88-2" value="Simpan" style="rounded=0;whiteSpace=wrap;html=1;" parent="WIyWlLk6GJQsqaUBKTNV-1" vertex="1">
          <mxGeometry x="160" y="290" width="120" height="60" as="geometry" />
        </mxCell>
        <mxCell id="T2A3G6Zsd0FEZtPso_88-6" style="edgeStyle=orthogonalEdgeStyle;rounded=0;orthogonalLoop=1;jettySize=auto;html=1;exitX=0.5;exitY=1;exitDx=0;exitDy=0;entryX=0.5;entryY=0;entryDx=0;entryDy=0;" parent="WIyWlLk6GJQsqaUBKTNV-1" source="T2A3G6Zsd0FEZtPso_88-3" target="T2A3G6Zsd0FEZtPso_88-7" edge="1">
          <mxGeometry relative="1" as="geometry">
            <mxPoint x="220" y="500" as="targetPoint" />
          </mxGeometry>
        </mxCell>
        <mxCell id="T2A3G6Zsd0FEZtPso_88-3" value="Menampilkan foto/&lt;div&gt;caption&lt;/div&gt;" style="shape=parallelogram;perimeter=parallelogramPerimeter;whiteSpace=wrap;html=1;fixedSize=1;" parent="WIyWlLk6GJQsqaUBKTNV-1" vertex="1">
          <mxGeometry x="150" y="400" width="140" height="50" as="geometry" />
        </mxCell>
        <mxCell id="T2A3G6Zsd0FEZtPso_88-4" value="Mulai" style="ellipse;whiteSpace=wrap;html=1;" parent="WIyWlLk6GJQsqaUBKTNV-1" vertex="1">
          <mxGeometry x="160" y="60" width="120" height="60" as="geometry" />
        </mxCell>
        <mxCell id="T2A3G6Zsd0FEZtPso_88-7" value="Selesai" style="ellipse;whiteSpace=wrap;html=1;" parent="WIyWlLk6GJQsqaUBKTNV-1" vertex="1">
          <mxGeometry x="160" y="505" width="120" height="55" as="geometry" />
        </mxCell>
        <mxCell id="T2A3G6Zsd0FEZtPso_88-26" value="" style="rounded=0;html=1;jettySize=auto;orthogonalLoop=1;fontSize=11;endArrow=block;endFill=0;endSize=8;strokeWidth=1;shadow=0;labelBackgroundColor=none;edgeStyle=orthogonalEdgeStyle;" parent="WIyWlLk6GJQsqaUBKTNV-1" edge="1">
          <mxGeometry relative="1" as="geometry">
            <mxPoint x="250" y="1150" as="sourcePoint" />
            <mxPoint x="250" y="1200" as="targetPoint" />
          </mxGeometry>
        </mxCell>
        <mxCell id="T2A3G6Zsd0FEZtPso_88-27" value="" style="rounded=0;html=1;jettySize=auto;orthogonalLoop=1;fontSize=11;endArrow=block;endFill=0;endSize=8;strokeWidth=1;shadow=0;labelBackgroundColor=none;edgeStyle=orthogonalEdgeStyle;exitX=0.5;exitY=1;exitDx=0;exitDy=0;" parent="WIyWlLk6GJQsqaUBKTNV-1" source="T2A3G6Zsd0FEZtPso_88-29" edge="1">
          <mxGeometry y="20" relative="1" as="geometry">
            <mxPoint as="offset" />
            <mxPoint x="250" y="1280" as="sourcePoint" />
            <mxPoint x="250" y="1320" as="targetPoint" />
          </mxGeometry>
        </mxCell>
        <mxCell id="T2A3G6Zsd0FEZtPso_88-28" value="" style="rounded=0;html=1;jettySize=auto;orthogonalLoop=1;fontSize=11;endArrow=block;endFill=0;endSize=8;strokeWidth=1;shadow=0;labelBackgroundColor=none;edgeStyle=orthogonalEdgeStyle;exitX=0.5;exitY=1;exitDx=0;exitDy=0;" parent="WIyWlLk6GJQsqaUBKTNV-1" edge="1">
          <mxGeometry x="0.3333" y="20" relative="1" as="geometry">
            <mxPoint as="offset" />
            <mxPoint x="250" y="1380" as="sourcePoint" />
            <mxPoint x="250" y="1430" as="targetPoint" />
          </mxGeometry>
        </mxCell>
        <mxCell id="T2A3G6Zsd0FEZtPso_88-29" value="Tampilkan Foto&amp;amp;&lt;div&gt;Caption&lt;/div&gt;" style="shape=parallelogram;perimeter=parallelogramPerimeter;whiteSpace=wrap;html=1;fixedSize=1;" parent="WIyWlLk6GJQsqaUBKTNV-1" vertex="1">
          <mxGeometry x="185" y="1200" width="130" height="60" as="geometry" />
        </mxCell>
        <mxCell id="T2A3G6Zsd0FEZtPso_88-31" style="edgeStyle=orthogonalEdgeStyle;rounded=0;orthogonalLoop=1;jettySize=auto;html=1;entryX=0.5;entryY=0;entryDx=0;entryDy=0;exitX=0.5;exitY=1;exitDx=0;exitDy=0;" parent="WIyWlLk6GJQsqaUBKTNV-1" source="T2A3G6Zsd0FEZtPso_88-36" target="T2A3G6Zsd0FEZtPso_88-34" edge="1">
          <mxGeometry relative="1" as="geometry">
            <mxPoint x="250" y="1530" as="targetPoint" />
            <mxPoint x="250" y="1550" as="sourcePoint" />
          </mxGeometry>
        </mxCell>
        <mxCell id="T2A3G6Zsd0FEZtPso_88-38" style="edgeStyle=orthogonalEdgeStyle;rounded=0;orthogonalLoop=1;jettySize=auto;html=1;entryX=0.5;entryY=0;entryDx=0;entryDy=0;" parent="WIyWlLk6GJQsqaUBKTNV-1" source="T2A3G6Zsd0FEZtPso_88-32" target="T2A3G6Zsd0FEZtPso_88-36" edge="1">
          <mxGeometry relative="1" as="geometry" />
        </mxCell>
        <mxCell id="T2A3G6Zsd0FEZtPso_88-32" value="Tambah foto&amp;amp;caption" style="shape=parallelogram;perimeter=parallelogramPerimeter;whiteSpace=wrap;html=1;fixedSize=1;" parent="WIyWlLk6GJQsqaUBKTNV-1" vertex="1">
          <mxGeometry x="180" y="1430" width="140" height="50" as="geometry" />
        </mxCell>
        <mxCell id="T2A3G6Zsd0FEZtPso_88-33" value="Mulai" style="ellipse;whiteSpace=wrap;html=1;" parent="WIyWlLk6GJQsqaUBKTNV-1" vertex="1">
          <mxGeometry x="190" y="1090" width="120" height="60" as="geometry" />
        </mxCell>
        <mxCell id="T2A3G6Zsd0FEZtPso_88-34" value="Selesai" style="ellipse;whiteSpace=wrap;html=1;" parent="WIyWlLk6GJQsqaUBKTNV-1" vertex="1">
          <mxGeometry x="190" y="1630" width="120" height="55" as="geometry" />
        </mxCell>
        <mxCell id="T2A3G6Zsd0FEZtPso_88-35" value="Edit Foto&amp;amp;&lt;div&gt;caption&amp;nbsp;&lt;/div&gt;" style="shape=parallelogram;perimeter=parallelogramPerimeter;whiteSpace=wrap;html=1;fixedSize=1;" parent="WIyWlLk6GJQsqaUBKTNV-1" vertex="1">
          <mxGeometry x="195" y="1320" width="120" height="60" as="geometry" />
        </mxCell>
        <mxCell id="T2A3G6Zsd0FEZtPso_88-36" value="Simpan" style="rounded=0;whiteSpace=wrap;html=1;" parent="WIyWlLk6GJQsqaUBKTNV-1" vertex="1">
          <mxGeometry x="190" y="1530" width="120" height="60" as="geometry" />
        </mxCell>
        <mxCell id="T2A3G6Zsd0FEZtPso_88-39" value="&lt;font style=&quot;font-size: 15px;&quot;&gt;&lt;b&gt;Flowchart Edit Foto &amp;amp; Caption&lt;/b&gt;&lt;/font&gt;" style="text;html=1;align=center;verticalAlign=middle;resizable=0;points=[];autosize=1;strokeColor=none;fillColor=none;" parent="WIyWlLk6GJQsqaUBKTNV-1" vertex="1">
          <mxGeometry x="5" y="1010" width="240" height="30" as="geometry" />
        </mxCell>
        <mxCell id="T2A3G6Zsd0FEZtPso_88-52" value="" style="rounded=0;html=1;jettySize=auto;orthogonalLoop=1;fontSize=11;endArrow=block;endFill=0;endSize=8;strokeWidth=1;shadow=0;labelBackgroundColor=none;edgeStyle=orthogonalEdgeStyle;" parent="WIyWlLk6GJQsqaUBKTNV-1" edge="1">
          <mxGeometry relative="1" as="geometry">
            <mxPoint x="520" y="3400" as="sourcePoint" />
            <mxPoint x="520" y="3450" as="targetPoint" />
          </mxGeometry>
        </mxCell>
        <mxCell id="T2A3G6Zsd0FEZtPso_88-54" value="" style="rounded=0;html=1;jettySize=auto;orthogonalLoop=1;fontSize=11;endArrow=block;endFill=0;endSize=8;strokeWidth=1;shadow=0;labelBackgroundColor=none;edgeStyle=orthogonalEdgeStyle;exitX=0.5;exitY=1;exitDx=0;exitDy=0;" parent="WIyWlLk6GJQsqaUBKTNV-1" edge="1" source="T2A3G6Zsd0FEZtPso_88-55">
          <mxGeometry x="0.3333" y="20" relative="1" as="geometry">
            <mxPoint as="offset" />
            <mxPoint x="520" y="3630" as="sourcePoint" />
            <mxPoint x="520" y="3680" as="targetPoint" />
          </mxGeometry>
        </mxCell>
        <mxCell id="T2A3G6Zsd0FEZtPso_88-55" value="Tampilkan Foto" style="shape=parallelogram;perimeter=parallelogramPerimeter;whiteSpace=wrap;html=1;fixedSize=1;" parent="WIyWlLk6GJQsqaUBKTNV-1" vertex="1">
          <mxGeometry x="455" y="3450" width="130" height="60" as="geometry" />
        </mxCell>
        <mxCell id="T2A3G6Zsd0FEZtPso_88-56" style="edgeStyle=orthogonalEdgeStyle;rounded=0;orthogonalLoop=1;jettySize=auto;html=1;entryX=0.5;entryY=0;entryDx=0;entryDy=0;exitX=0.5;exitY=1;exitDx=0;exitDy=0;" parent="WIyWlLk6GJQsqaUBKTNV-1" source="T2A3G6Zsd0FEZtPso_88-60" target="T2A3G6Zsd0FEZtPso_88-58" edge="1">
          <mxGeometry relative="1" as="geometry">
            <mxPoint x="520" y="3780" as="targetPoint" />
            <mxPoint x="520" y="3800" as="sourcePoint" />
          </mxGeometry>
        </mxCell>
        <mxCell id="T2A3G6Zsd0FEZtPso_88-57" value="Mulai" style="ellipse;whiteSpace=wrap;html=1;" parent="WIyWlLk6GJQsqaUBKTNV-1" vertex="1">
          <mxGeometry x="460" y="3340" width="120" height="60" as="geometry" />
        </mxCell>
        <mxCell id="T2A3G6Zsd0FEZtPso_88-58" value="Selesai" style="ellipse;whiteSpace=wrap;html=1;" parent="WIyWlLk6GJQsqaUBKTNV-1" vertex="1">
          <mxGeometry x="460" y="3890" width="120" height="55" as="geometry" />
        </mxCell>
        <mxCell id="T2A3G6Zsd0FEZtPso_88-60" value="Simpan" style="rounded=0;whiteSpace=wrap;html=1;" parent="WIyWlLk6GJQsqaUBKTNV-1" vertex="1">
          <mxGeometry x="460" y="3790" width="120" height="60" as="geometry" />
        </mxCell>
        <mxCell id="T2A3G6Zsd0FEZtPso_88-61" value="&lt;font style=&quot;font-size: 15px;&quot;&gt;&lt;b&gt;Flowchart Hapus&amp;nbsp; Foto &amp;amp; Caption&lt;/b&gt;&lt;/font&gt;" style="text;html=1;align=center;verticalAlign=middle;resizable=0;points=[];autosize=1;strokeColor=none;fillColor=none;" parent="WIyWlLk6GJQsqaUBKTNV-1" vertex="1">
          <mxGeometry x="265" y="3260" width="260" height="30" as="geometry" />
        </mxCell>
        <mxCell id="T2A3G6Zsd0FEZtPso_88-63" style="edgeStyle=orthogonalEdgeStyle;rounded=0;orthogonalLoop=1;jettySize=auto;html=1;exitX=0.5;exitY=1;exitDx=0;exitDy=0;entryX=0.5;entryY=0;entryDx=0;entryDy=0;" parent="WIyWlLk6GJQsqaUBKTNV-1" source="T2A3G6Zsd0FEZtPso_88-62" target="T2A3G6Zsd0FEZtPso_88-60" edge="1">
          <mxGeometry relative="1" as="geometry" />
        </mxCell>
        <mxCell id="T2A3G6Zsd0FEZtPso_88-62" value="Hapus foto&amp;amp;Caption" style="shape=parallelogram;perimeter=parallelogramPerimeter;whiteSpace=wrap;html=1;fixedSize=1;" parent="WIyWlLk6GJQsqaUBKTNV-1" vertex="1">
          <mxGeometry x="460" y="3680" width="120" height="60" as="geometry" />
        </mxCell>
        <mxCell id="T2A3G6Zsd0FEZtPso_88-64" value="&lt;b&gt;&lt;font style=&quot;font-size: 16px;&quot;&gt;Flowchart Hapus Postingan&lt;/font&gt;&lt;/b&gt;" style="text;html=1;align=center;verticalAlign=middle;resizable=0;points=[];autosize=1;strokeColor=none;fillColor=none;" parent="WIyWlLk6GJQsqaUBKTNV-1" vertex="1">
          <mxGeometry x="300" y="4300" width="230" height="30" as="geometry" />
        </mxCell>
        <mxCell id="T2A3G6Zsd0FEZtPso_88-65" value="Mulai" style="ellipse;whiteSpace=wrap;html=1;" parent="WIyWlLk6GJQsqaUBKTNV-1" vertex="1">
          <mxGeometry x="370" y="4352" width="120" height="50" as="geometry" />
        </mxCell>
        <mxCell id="T2A3G6Zsd0FEZtPso_88-78" style="edgeStyle=orthogonalEdgeStyle;rounded=0;orthogonalLoop=1;jettySize=auto;html=1;exitX=1;exitY=0.5;exitDx=0;exitDy=0;entryX=1;entryY=0.5;entryDx=0;entryDy=0;" parent="WIyWlLk6GJQsqaUBKTNV-1" source="T2A3G6Zsd0FEZtPso_88-66" target="T2A3G6Zsd0FEZtPso_88-71" edge="1">
          <mxGeometry relative="1" as="geometry">
            <Array as="points">
              <mxPoint x="510" y="4480" />
              <mxPoint x="610" y="4480" />
              <mxPoint x="610" y="4721" />
            </Array>
          </mxGeometry>
        </mxCell>
        <mxCell id="T2A3G6Zsd0FEZtPso_88-66" value="Tampilan Foto" style="shape=parallelogram;perimeter=parallelogramPerimeter;whiteSpace=wrap;html=1;fixedSize=1;" parent="WIyWlLk6GJQsqaUBKTNV-1" vertex="1">
          <mxGeometry x="340" y="4452" width="180" height="68" as="geometry" />
        </mxCell>
        <mxCell id="T2A3G6Zsd0FEZtPso_88-68" value="" style="endArrow=classic;html=1;rounded=0;exitX=0.5;exitY=1;exitDx=0;exitDy=0;entryX=0.5;entryY=0;entryDx=0;entryDy=0;" parent="WIyWlLk6GJQsqaUBKTNV-1" source="T2A3G6Zsd0FEZtPso_88-65" target="T2A3G6Zsd0FEZtPso_88-66" edge="1">
          <mxGeometry width="50" height="50" relative="1" as="geometry">
            <mxPoint x="600" y="4572" as="sourcePoint" />
            <mxPoint x="650" y="4522" as="targetPoint" />
          </mxGeometry>
        </mxCell>
        <mxCell id="T2A3G6Zsd0FEZtPso_88-69" value="" style="endArrow=classic;html=1;rounded=0;entryX=0.5;entryY=0;entryDx=0;entryDy=0;" parent="WIyWlLk6GJQsqaUBKTNV-1" source="T2A3G6Zsd0FEZtPso_88-66" edge="1">
          <mxGeometry width="50" height="50" relative="1" as="geometry">
            <mxPoint x="600" y="4572" as="sourcePoint" />
            <mxPoint x="430" y="4580" as="targetPoint" />
          </mxGeometry>
        </mxCell>
        <mxCell id="T2A3G6Zsd0FEZtPso_88-70" value="" style="endArrow=classic;html=1;rounded=0;exitX=0.5;exitY=1;exitDx=0;exitDy=0;" parent="WIyWlLk6GJQsqaUBKTNV-1" target="T2A3G6Zsd0FEZtPso_88-71" edge="1">
          <mxGeometry width="50" height="50" relative="1" as="geometry">
            <mxPoint x="430" y="4630" as="sourcePoint" />
            <mxPoint x="650" y="4522" as="targetPoint" />
          </mxGeometry>
        </mxCell>
        <mxCell id="T2A3G6Zsd0FEZtPso_88-71" value="&lt;font style=&quot;font-size: 12px;&quot;&gt;Anda Yakin ingin menghapus Postingan&amp;nbsp;&lt;/font&gt;&lt;div style=&quot;font-size: 12px;&quot;&gt;&lt;font style=&quot;font-size: 12px;&quot;&gt;Ini&lt;/font&gt;&lt;/div&gt;" style="rhombus;whiteSpace=wrap;html=1;fontSize=9;" parent="WIyWlLk6GJQsqaUBKTNV-1" vertex="1">
          <mxGeometry x="340" y="4676" width="180" height="90" as="geometry" />
        </mxCell>
        <mxCell id="T2A3G6Zsd0FEZtPso_88-73" value="" style="endArrow=classic;html=1;rounded=0;exitX=0.5;exitY=1;exitDx=0;exitDy=0;" parent="WIyWlLk6GJQsqaUBKTNV-1" source="T2A3G6Zsd0FEZtPso_88-71" edge="1">
          <mxGeometry width="50" height="50" relative="1" as="geometry">
            <mxPoint x="600" y="4652" as="sourcePoint" />
            <mxPoint x="430" y="4810" as="targetPoint" />
          </mxGeometry>
        </mxCell>
        <mxCell id="T2A3G6Zsd0FEZtPso_88-74" value="" style="endArrow=classic;html=1;rounded=0;exitX=0.438;exitY=0.975;exitDx=0;exitDy=0;exitPerimeter=0;entryX=0.417;entryY=-0.025;entryDx=0;entryDy=0;entryPerimeter=0;" parent="WIyWlLk6GJQsqaUBKTNV-1" source="T2A3G6Zsd0FEZtPso_88-80" target="T2A3G6Zsd0FEZtPso_88-75" edge="1">
          <mxGeometry width="50" height="50" relative="1" as="geometry">
            <mxPoint x="430.03999999999974" y="4870" as="sourcePoint" />
            <mxPoint x="430" y="4862" as="targetPoint" />
          </mxGeometry>
        </mxCell>
        <mxCell id="T2A3G6Zsd0FEZtPso_88-75" value="Selesai" style="ellipse;whiteSpace=wrap;html=1;" parent="WIyWlLk6GJQsqaUBKTNV-1" vertex="1">
          <mxGeometry x="370" y="4930" width="120" height="50" as="geometry" />
        </mxCell>
        <mxCell id="T2A3G6Zsd0FEZtPso_88-76" value="Hapus Postingan" style="shape=parallelogram;perimeter=parallelogramPerimeter;whiteSpace=wrap;html=1;fixedSize=1;" parent="WIyWlLk6GJQsqaUBKTNV-1" vertex="1">
          <mxGeometry x="330" y="4580" width="180" height="60" as="geometry" />
        </mxCell>
        <mxCell id="T2A3G6Zsd0FEZtPso_88-79" value="Tidak" style="text;html=1;align=center;verticalAlign=middle;resizable=0;points=[];autosize=1;strokeColor=none;fillColor=none;" parent="WIyWlLk6GJQsqaUBKTNV-1" vertex="1">
          <mxGeometry x="615" y="4568" width="50" height="30" as="geometry" />
        </mxCell>
        <mxCell id="T2A3G6Zsd0FEZtPso_88-80" value="Tampilan web" style="shape=parallelogram;perimeter=parallelogramPerimeter;whiteSpace=wrap;html=1;fixedSize=1;" parent="WIyWlLk6GJQsqaUBKTNV-1" vertex="1">
          <mxGeometry x="370" y="4810" width="120" height="50" as="geometry" />
        </mxCell>
      </root>
    </mxGraphModel>
  </diagram>
</mxfile>
